<?xml version="1.0" encoding="utf-8"?>
<svg version="1.1" xmlns:xlink="http://www.w3.org/1999/xlink" width="12px" height="12px" viewBox="66 48  12 12" xmlns="http://www.w3.org/2000/svg">
  <path d="M 72 48  C 75.36 48  78 50.64  78 54  C 78 57.36  75.36 60  72 60  C 68.64 60  66 57.36  66 54  C 66 50.64  68.64 48  72 48  Z " fill-rule="nonzero" fill="#ffffff" stroke="none" />
  <path d="M 72 48.5  C 75.08 48.5  77.5 50.92  77.5 54  C 77.5 57.08  75.08 59.5  72 59.5  C 68.92 59.5  66.5 57.08  66.5 54  C 66.5 50.92  68.92 48.5  72 48.5  Z " stroke-width="1" stroke="#797979" fill="none" />
  <path d="M 72 57  C 70.32 57  69 55.68  69 54  C 69 52.32  70.32 51  72 51  C 73.68 51  75 52.32  75 54  C 75 55.68  73.68 57  72 57  " fill-rule="nonzero" fill="#797979" stroke="none" />
</svg>