<?xml version="1.0" encoding="utf-8"?>
<svg version="1.1" xmlns:xlink="http://www.w3.org/1999/xlink" width="17px" height="16px" xmlns="http://www.w3.org/2000/svg">
  <g transform="matrix(1 0 0 1 -1 -234 )">
    <path d="M 10.5 234.5  L 8.5 234.5  L 8.5 240.5  L 1.5 240.5  L 1.5 243.5  L 8.5 243.5  L 8.5 249.5  L 10.5 249.5  L 10.5 243.5  L 17.5 243.5  L 17.5 240.5  L 10.5 240.5  L 10.5 234.5  Z " fill-rule="nonzero" fill="#000000" stroke="none" />
    <path d="M 10.5 234.5  L 8.5 234.5  L 8.5 240.5  L 1.5 240.5  L 1.5 243.5  L 8.5 243.5  L 8.5 249.5  L 10.5 249.5  L 10.5 243.5  L 17.5 243.5  L 17.5 240.5  L 10.5 240.5  L 10.5 234.5  Z " stroke-width="1" stroke="#797979" fill="none" />
  </g>
</svg>