<?xml version="1.0" encoding="utf-8"?>
<svg version="1.1" xmlns:xlink="http://www.w3.org/1999/xlink" width="18px" height="18px" xmlns="http://www.w3.org/2000/svg">
  <g transform="matrix(1 0 0 1 -87 -64 )">
    <path d="M 96 64  C 101.04 64  105 67.96  105 73  C 105 78.04  101.04 82  96 82  C 90.96 82  87 78.04  87 73  C 87 67.96  90.96 64  96 64  Z " fill-rule="nonzero" fill="#ffffff" stroke="none" />
    <path d="M 96 64.5  C 100.76 64.5  104.5 68.24  104.5 73  C 104.5 77.76  100.76 81.5  96 81.5  C 91.24 81.5  87.5 77.76  87.5 73  C 87.5 68.24  91.24 64.5  96 64.5  Z " stroke-width="1" stroke="#797979" fill="none" />
  </g>
</svg>