<?xml version="1.0" encoding="utf-8"?>
<svg version="1.1" xmlns:xlink="http://www.w3.org/1999/xlink" width="17px" height="17px" xmlns="http://www.w3.org/2000/svg">
  <g transform="matrix(1 0 0 1 -3 -260 )">
    <path d="M 12.5 260.5  L 10.5 260.5  L 10.5 267.5  L 3.5 267.5  L 3.5 269.5  L 10.5 269.5  L 10.5 276.5  L 12.5 276.5  L 12.5 269.5  L 19.5 269.5  L 19.5 267.5  L 12.5 267.5  L 12.5 260.5  Z " fill-rule="nonzero" fill="#000000" stroke="none" />
    <path d="M 12.5 260.5  L 10.5 260.5  L 10.5 267.5  L 3.5 267.5  L 3.5 269.5  L 10.5 269.5  L 10.5 276.5  L 12.5 276.5  L 12.5 269.5  L 19.5 269.5  L 19.5 267.5  L 12.5 267.5  L 12.5 260.5  Z " stroke-width="1" stroke="#797979" fill="none" />
  </g>
</svg>