<?xml version="1.0" encoding="utf-8"?>
<svg version="1.1" xmlns:xlink="http://www.w3.org/1999/xlink" width="17px" height="16px" xmlns="http://www.w3.org/2000/svg">
  <g transform="matrix(1 0 0 1 -501 -754 )">
    <path d="M 510.5 754.5  L 508.5 754.5  L 508.5 760.5  L 501.5 760.5  L 501.5 763.5  L 508.5 763.5  L 508.5 769.5  L 510.5 769.5  L 510.5 763.5  L 517.5 763.5  L 517.5 760.5  L 510.5 760.5  L 510.5 754.5  Z " fill-rule="nonzero" fill="#000000" stroke="none" />
    <path d="M 510.5 754.5  L 508.5 754.5  L 508.5 760.5  L 501.5 760.5  L 501.5 763.5  L 508.5 763.5  L 508.5 769.5  L 510.5 769.5  L 510.5 763.5  L 517.5 763.5  L 517.5 760.5  L 510.5 760.5  L 510.5 754.5  Z " stroke-width="1" stroke="#797979" fill="none" />
  </g>
</svg>