<?xml version="1.0" encoding="utf-8"?>
<svg version="1.1" xmlns:xlink="http://www.w3.org/1999/xlink" width="12px" height="12px" viewBox="362 60  12 12" xmlns="http://www.w3.org/2000/svg">
  <path d="M 368 60  C 371.36 60  374 62.64  374 66  C 374 69.36  371.36 72  368 72  C 364.64 72  362 69.36  362 66  C 362 62.64  364.64 60  368 60  Z " fill-rule="nonzero" fill="#ffffff" stroke="none" />
  <path d="M 368 60.5  C 371.08 60.5  373.5 62.92  373.5 66  C 373.5 69.08  371.08 71.5  368 71.5  C 364.92 71.5  362.5 69.08  362.5 66  C 362.5 62.92  364.92 60.5  368 60.5  Z " stroke-width="1" stroke="#797979" fill="none" />
  <path d="M 368 69  C 366.32 69  365 67.68  365 66  C 365 64.32  366.32 63  368 63  C 369.68 63  371 64.32  371 66  C 371 67.68  369.68 69  368 69  " fill-rule="nonzero" fill="#797979" stroke="none" />
</svg>