<?xml version="1.0" encoding="utf-8"?>
<svg version="1.1" xmlns:xlink="http://www.w3.org/1999/xlink" width="12px" height="12px" viewBox="362 71  12 12" xmlns="http://www.w3.org/2000/svg">
  <path d="M 368 71  C 371.36 71  374 73.64  374 77  C 374 80.36  371.36 83  368 83  C 364.64 83  362 80.36  362 77  C 362 73.64  364.64 71  368 71  Z " fill-rule="nonzero" fill="#ffffff" stroke="none" />
  <path d="M 368 71.5  C 371.08 71.5  373.5 73.92  373.5 77  C 373.5 80.08  371.08 82.5  368 82.5  C 364.92 82.5  362.5 80.08  362.5 77  C 362.5 73.92  364.92 71.5  368 71.5  Z " stroke-width="1" stroke="#797979" fill="none" />
  <path d="M 368 80  C 366.32 80  365 78.68  365 77  C 365 75.32  366.32 74  368 74  C 369.68 74  371 75.32  371 77  C 371 78.68  369.68 80  368 80  " fill-rule="nonzero" fill="#797979" stroke="none" />
</svg>