<svg t="1594017723418" class="icon" viewBox="0 0 1024 1024" version="1.1" xmlns="http://www.w3.org/2000/svg" p-id="2051" width="200" height="200"><path d="M512 512m-512 0a512 512 0 1 0 1024 0 512 512 0 1 0-1024 0Z" fill="#FFFFFF" p-id="2052"></path><path d="M512 0C226.752 0 0 226.752 0 512s226.752 512 512 512 512-226.752 512-512S797.248 0 512 0z m65.824 394.976c0-14.624 14.624-36.576 36.576-36.576h51.2c14.624 0 36.576 14.624 36.576 36.576V460.8c0 14.624-14.624 36.576-36.576 36.576h-51.2c-14.624 0-36.576-14.624-36.576-36.576v-65.824z m-256 0c0-14.624 14.624-36.576 36.576-36.576h51.2c14.624 0 36.576 14.624 36.576 36.576V460.8c0 14.624-14.624 36.576-36.576 36.576h-51.2c-14.624 0-36.576-14.624-36.576-36.576v-65.824zM694.848 768c-43.872-73.152-102.4-102.4-182.848-102.4-80.448 0-138.976 29.248-182.848 102.4H256c36.576-95.072 146.272-168.224 256-168.224 109.728 0 226.752 87.776 256 168.224h-73.152z" fill="#EF3D47" p-id="2053"></path></svg>