<svg t="1593313407248" class="icon" viewBox="0 0 1024 1024" version="1.1" xmlns="http://www.w3.org/2000/svg" p-id="2155" width="200" height="200"><path d="M912.122445 499.544317c-0.901533-0.901533-1.840928-1.740644-2.808976-2.526543l-92.575442-92.578512c-14.060227-14.06125-36.858466-14.06125-50.918693 0-14.06125 14.06125-14.059204 36.856419 0 50.91767l32.605605 32.608675L542.600437 487.965607 542.600437 231.761458l34.57854 34.579563c14.060227 14.06125 36.855396 14.06125 50.918693 0 14.06125-14.06125 14.059204-36.858466 0-50.919716l-95.008864-95.006817c-7.030114-7.02909-16.246009-10.54517-25.460882-10.54517-9.215896 0-18.428721 3.515057-25.459858 10.54517-0.901533 0.901533-1.740644 1.840928-2.526543 2.809999l-92.577488 92.574419c-14.06125 14.06125-14.06125 36.858466 0 50.918693 14.06125 14.06125 36.856419 14.059204 50.91767 0l32.607652-32.606629 0 221.249033c-0.203638 1.550309-0.319272 3.12927-0.319272 4.733814l0 27.870768-27.550473 0c-0.106424 0-0.210801 0.007163-0.316202 0.008186L214.387253 487.97277l34.57854-34.579563c14.06125-14.06125 14.06125-36.854373 0-50.918693-14.06125-14.06125-36.857443-14.059204-50.918693 0l-95.007841 95.008864c-7.02909 7.030114-10.54517 16.244986-10.54517 25.458835 0 9.214872 3.515057 18.430768 10.54517 25.458835 0.901533 0.901533 1.840928 1.74269 2.809999 2.52859l92.575442 92.578512c14.06125 14.06125 36.858466 14.06125 50.918693 0 14.06125-14.060227 14.059204-36.858466 0-50.918693l-32.606629-32.606629 253.53332 0 0 258.164804-34.579563-34.57854c-14.06125-14.06125-36.854373-14.06125-50.918693 0-14.06125 14.060227-14.059204 36.858466 0 50.918693L479.780693 929.495626c7.030114 7.02909 16.249079 10.54517 25.462928 10.54517 9.214872 0 18.428721-3.51301 25.458835-10.54517 0.901533-0.901533 1.740644-1.841951 2.527566-2.809999l92.578512-92.574419c14.060227-14.06125 14.060227-36.858466 0-50.919716-14.06125-14.060227-36.857443-14.057157-50.91767 0l-32.608675 32.606629L542.282189 594.536808c0.202615-1.546216 0.319272-3.120061 0.319272-4.721535l0-29.831422 29.841655 0c0.12689 0 0.251733-0.008186 0.378623-0.010233l227.953735 0-34.57854 34.579563c-14.060227 14.060227-14.060227 36.854373 0 50.918693 14.06125 14.06125 36.858466 14.06125 50.919716 0l95.006817-95.007841c7.02909-7.031137 10.54517-16.247033 10.54517-25.460882C922.666592 515.78828 919.152559 506.574431 912.122445 499.544317z" p-id="2156" fill="#1296db"></path></svg>