<svg t="1595381345502" class="icon" viewBox="0 0 1075 1024" version="1.1" xmlns="http://www.w3.org/2000/svg" p-id="2090" width="200" height="200"><path d="M725.1456 311.4496L397.312 630.6304 311.808 485.376a36.5568 36.5568 0 0 0-49.152-13.056 34.304 34.304 0 0 0-13.4144 47.7184l108.9536 185.088a36.352 36.352 0 0 0 31.3344 17.7152 36.5568 36.5568 0 0 0 26.3168-11.1104l0.4096-0.3584 359.8336-350.3616a34.304 34.304 0 0 0-0.1024-49.4592 36.5056 36.5056 0 0 0-50.8416-0.1024zM515.584 0c282.8288 0 512 229.2224 512 512s-229.1712 512-512 512c-282.7776 0-512-229.2224-512-512s229.2224-512 512-512z" fill="#00BA64" p-id="2091"></path></svg>